<?xml version="1.0" encoding="UTF-8" standalone="no"?>
<svg width="125px" height="26px" viewBox="0 0 125 26" version="1.1" xmlns="http://www.w3.org/2000/svg" xmlns:xlink="http://www.w3.org/1999/xlink">
    <!-- Generator: Sketch 41.2 (35397) - http://www.bohemiancoding.com/sketch -->
    <title>Page 1</title>
    <desc>Created with Sketch.</desc>
    <defs></defs>
    <g id="Welcome" stroke="none" stroke-width="1" fill="none" fill-rule="evenodd">
        <g id="Desktop-HD-Copy" transform="translate(-705.000000, -4717.000000)" fill="#ED1C24">
            <g id="Page-1" transform="translate(705.000000, 4717.000000)">
                <path d="M41.762004,22.8187281 C39.6667659,22.8187281 37.9405754,21.1673401 37.9405754,19.1037273 C37.9405754,17.0505695 39.6667659,15.3882286 41.762004,15.3882286 C43.8765873,15.3882286 45.5869048,17.0505695 45.5869048,19.1037273 C45.5869048,21.1673401 43.8765873,22.8187281 41.762004,22.8187281 L41.762004,22.8187281 Z M55.2044643,25.320952 L50.8041667,9.32384563 C50.0978175,6.73549271 47.6647817,4.8416488 44.7997024,4.8416488 C44.0506944,4.8416488 43.340377,4.95515995 42.6727183,5.20906647 L33.1831349,8.57058962 L42.9291667,8.57058962 L44.6077381,14.6220283 C42.996627,13.2608902 40.8904762,12.4354451 38.5849206,12.4354451 C34.0010913,12.4354451 30.2887897,15.4156106 30.2887897,19.1037273 C30.2887897,22.794831 34.0010913,25.7799751 38.5849206,25.7799751 C41.8746032,25.7799751 44.7902778,24.2147161 46.5834325,21.7906557 L47.5616071,25.320952 L55.2044643,25.320952 Z" id="Fill-1"></path>
                <path d="M73.1776786,4.84169858 C72.5878968,4.84169858 72.0511905,4.95520973 71.5546627,5.18621488 L65.4624008,7.9473238 C65.1677579,6.19586668 63.5918651,4.84169858 61.6945437,4.84169858 C61.122619,4.84169858 60.5655754,4.95520973 60.0918651,5.18621488 L52.6494048,8.57063941 L57.8755952,8.57063941 L57.8755952,25.3214996 L65.5154762,25.3214996 L65.5154762,10.4186806 C65.5154762,9.39956951 66.3830357,8.57063941 67.4276786,8.57063941 C68.4876984,8.57063941 69.3522817,9.39956951 69.3522817,10.4186806 L69.3522817,25.3214996 L76.9842262,25.3214996 L76.9842262,8.57063941 C76.9842262,6.51449447 75.2818452,4.84169858 73.1776786,4.84169858" id="Fill-3"></path>
                <path d="M121.154216,4.84169858 C120.582788,4.84169858 120.025744,4.95520973 119.540129,5.18621488 L113.445387,7.9473238 C113.151736,6.19586668 111.576339,4.84169858 109.681002,4.84169858 C109.093204,4.84169858 108.542113,4.95520973 108.056498,5.18621488 L100.625942,8.57063941 L105.857093,8.57063941 L105.857093,25.3214996 L113.506895,25.3214996 L113.506895,10.4186806 C113.506895,9.39956951 114.349653,8.57063941 115.400248,8.57063941 C116.467212,8.57063941 117.320387,9.39956951 117.320387,10.4186806 L117.320387,25.3214996 L124.977133,25.3214996 L124.977133,8.57063941 C124.977133,6.51449447 123.260367,4.84169858 121.154216,4.84169858" id="Fill-5"></path>
                <path d="M91.4765873,8.04082114 C91.1363095,6.79568349 89.8138889,6.05387817 88.5554563,6.39042877 C87.2732143,6.72847294 86.5227183,8.00198838 86.8634921,9.24164961 L90.5638889,22.7430042 C90.9145833,23.9607598 92.2270833,24.7120244 93.5048611,24.3704952 C94.768254,24.0473867 95.5261905,22.7693906 95.1883929,21.5342101 L91.4765873,8.04082114 Z M101.870437,15.3886766 C101.870437,21.2066209 96.9984127,25.9248014 91.0331349,25.9248014 C85.0306548,25.9248014 80.1819444,21.2066209 80.1819444,15.3886766 C80.1819444,9.55430313 85.0306548,4.84209687 91.0331349,4.84209687 C96.9984127,4.84209687 101.870437,9.55430313 101.870437,15.3886766 L101.870437,15.3886766 Z" id="Fill-7"></path>
                <path d="M20.4094246,23.4662893 C14.6018849,23.4662893 9.88115079,18.8735685 9.88115079,13.2139424 C9.88115079,7.56626488 14.6018849,2.97254833 20.4094246,2.97254833 C22.4565476,2.97254833 24.3756944,3.5465762 25.9882937,4.53083735 L20.4094246,13.2139424 L30.9223214,7.30538838 C29.7690476,5.55542483 28.1232143,4.03148786 26.1425595,2.86003289 C23.634623,1.39534078 20.134623,0.497706561 16.2616071,0.497706561 C10.7472222,0.497706561 5.91488095,2.43785107 3.1921627,5.37320956 C1.20605159,7.52743212 -0.000297619048,10.2631504 -0.000297619048,13.2139424 C-0.000297619048,16.1682194 1.20605159,18.8984613 3.1921627,21.0775766 C5.91488095,23.9825659 10.6802579,25.924204 16.0969246,25.924204 C21.5359127,25.924204 26.321627,23.9825659 29.0274802,21.0775766 C29.1683532,20.8978506 29.3117063,20.734056 29.4525794,20.5692657 L29.0274802,19.068728 C27.1276786,21.7218022 23.9749008,23.4662893 20.4094246,23.4662893" id="Fill-9"></path>
            </g>
        </g>
    </g>
</svg>